<?xml version="1.0" encoding="UTF-8" standalone="no"?>
<!-- Created with Inkscape (http://www.inkscape.org/) -->
<svg
   xmlns:dc="http://purl.org/dc/elements/1.1/"
   xmlns:cc="http://web.resource.org/cc/"
   xmlns:rdf="http://www.w3.org/1999/02/22-rdf-syntax-ns#"
   xmlns:svg="http://www.w3.org/2000/svg"
   xmlns="http://www.w3.org/2000/svg"
   xmlns:xlink="http://www.w3.org/1999/xlink"
   xmlns:sodipodi="http://sodipodi.sourceforge.net/DTD/sodipodi-0.dtd"
   xmlns:inkscape="http://www.inkscape.org/namespaces/inkscape"
   width="22"
   height="22"
   id="svg1974"
   sodipodi:version="0.32"
   inkscape:version="0.44.1"
   version="1.0"
   sodipodi:docbase="/home/markus/gogui/src/net/sf/gogui/images"
   sodipodi:docname="gogui-play.svg">
  <defs
     id="defs1976">
    <linearGradient
       id="linearGradient5075">
      <stop
         style="stop-color:#adb0a8;stop-opacity:1;"
         offset="0"
         id="stop5077" />
      <stop
         style="stop-color:#464744;stop-opacity:1"
         offset="1"
         id="stop5079" />
    </linearGradient>
    <linearGradient
       inkscape:collect="always"
       xlink:href="#linearGradient5075"
       id="linearGradient1924"
       gradientUnits="userSpaceOnUse"
       gradientTransform="matrix(0.652808,0,0,0.652916,-29.0364,-46.0899)"
       x1="71.288956"
       y1="124.11652"
       x2="70.826942"
       y2="95" />
    <linearGradient
       id="linearGradient2691"
       inkscape:collect="always">
      <stop
         id="stop2693"
         offset="0"
         style="stop-color:#ffffff;stop-opacity:1" />
      <stop
         id="stop2695"
         offset="1"
         style="stop-color:#d3d7cf" />
    </linearGradient>
    <radialGradient
       inkscape:collect="always"
       xlink:href="#linearGradient2691"
       id="radialGradient1927"
       gradientUnits="userSpaceOnUse"
       gradientTransform="matrix(3.549563e-2,-0.557492,1.346316,8.571204e-2,-101.2797,72.05122)"
       cx="107.5884"
       cy="83.990814"
       fx="107.5884"
       fy="83.990814"
       r="12.551644" />
    <linearGradient
       id="linearGradient2684">
      <stop
         id="stop2686"
         offset="0"
         style="stop-color:#ffffff;stop-opacity:1;" />
      <stop
         id="stop2688"
         offset="1"
         style="stop-color:#000000;stop-opacity:1;" />
    </linearGradient>
    <linearGradient
       inkscape:collect="always"
       xlink:href="#linearGradient2684"
       id="linearGradient1930"
       gradientUnits="userSpaceOnUse"
       gradientTransform="matrix(0.752121,0,0,0.752121,-35.99544,-55.57344)"
       x1="70.913956"
       y1="101.74152"
       x2="70.951942"
       y2="88.923729" />
    <linearGradient
       y2="3.8451097"
       x2="35.520542"
       y1="3.9384086"
       x1="34.300991"
       gradientUnits="userSpaceOnUse"
       id="linearGradient2733"
       xlink:href="#linearGradient2711"
       inkscape:collect="always" />
    <linearGradient
       y2="3.8451097"
       x2="35.520542"
       y1="3.9384086"
       x1="34.300991"
       gradientUnits="userSpaceOnUse"
       id="linearGradient2729"
       xlink:href="#linearGradient2711"
       inkscape:collect="always" />
    <linearGradient
       y2="3.8451097"
       x2="35.520542"
       y1="3.9384086"
       x1="34.300991"
       gradientUnits="userSpaceOnUse"
       id="linearGradient2725"
       xlink:href="#linearGradient2711"
       inkscape:collect="always" />
    <linearGradient
       y2="3.8451097"
       x2="35.520542"
       y1="3.9384086"
       x1="34.300991"
       gradientUnits="userSpaceOnUse"
       id="linearGradient2721"
       xlink:href="#linearGradient2711"
       inkscape:collect="always" />
    <linearGradient
       id="linearGradient2711">
      <stop
         id="stop2713"
         offset="0.0000000"
         style="stop-color:#909090;stop-opacity:1.0000000;" />
      <stop
         id="stop2715"
         offset="1.0000000"
         style="stop-color:#bebebe;stop-opacity:0.0000000;" />
    </linearGradient>
    <linearGradient
       gradientUnits="userSpaceOnUse"
       y2="3.8451097"
       x2="35.520542"
       y1="3.9384086"
       x1="34.300991"
       id="linearGradient2717"
       xlink:href="#linearGradient2711"
       inkscape:collect="always" />
    <linearGradient
       id="linearGradient2635"
       inkscape:collect="always">
      <stop
         id="stop2637"
         offset="0"
         style="stop-color:#f9fff5;stop-opacity:1;" />
      <stop
         id="stop2639"
         offset="1"
         style="stop-color:#f9fff5;stop-opacity:0;" />
    </linearGradient>
    <linearGradient
       y2="74.098007"
       x2="8.6485014"
       y1="101.28460"
       x1="13.628710"
       gradientTransform="matrix(2.143634,0,0,0.466498,1,-0.508826)"
       gradientUnits="userSpaceOnUse"
       id="linearGradient2741"
       xlink:href="#linearGradient2635"
       inkscape:collect="always" />
    <linearGradient
       y2="100.20015"
       x2="8.1134233"
       y1="88.509071"
       x1="8.1134243"
       gradientTransform="scale(2.309851,0.432928)"
       gradientUnits="userSpaceOnUse"
       id="linearGradient1409"
       xlink:href="#linearGradient2752"
       inkscape:collect="always" />
    <linearGradient
       y2="100.20015"
       x2="8.1134233"
       y1="88.509071"
       x1="8.1134243"
       gradientTransform="scale(2.309851,0.432928)"
       gradientUnits="userSpaceOnUse"
       id="linearGradient1411"
       xlink:href="#linearGradient2752"
       inkscape:collect="always" />
    <linearGradient
       id="linearGradient2752">
      <stop
         id="stop2754"
         offset="0"
         style="stop-color:#9d9d9d;stop-opacity:1;" />
      <stop
         id="stop2756"
         offset="1.0000000"
         style="stop-color:#b9b9b9;stop-opacity:1.0000000;" />
    </linearGradient>
    <linearGradient
       gradientUnits="userSpaceOnUse"
       y2="100.20015"
       x2="8.1134233"
       y1="88.509071"
       x1="8.1134243"
       gradientTransform="scale(2.309851,0.432928)"
       id="linearGradient2758"
       xlink:href="#linearGradient2752"
       inkscape:collect="always" />
    <linearGradient
       y2="31.246054"
       x2="32.536823"
       y1="5.3817744"
       x1="10.390738"
       gradientTransform="scale(1.104397,0.905471)"
       gradientUnits="userSpaceOnUse"
       id="linearGradient1413"
       xlink:href="#linearGradient2253"
       inkscape:collect="always" />
    <linearGradient
       y2="52.536461"
       x2="18.176752"
       y1="48.643234"
       x1="18.316999"
       gradientTransform="scale(1.129863,0.885063)"
       gradientUnits="userSpaceOnUse"
       id="linearGradient2981"
       xlink:href="#linearGradient2245"
       inkscape:collect="always" />
    <radialGradient
       r="8.7662794"
       fy="67.501709"
       fx="12.575710"
       cy="67.501709"
       cx="12.575710"
       gradientTransform="scale(1.925808,0.519262)"
       gradientUnits="userSpaceOnUse"
       id="radialGradient2659"
       xlink:href="#linearGradient2454"
       inkscape:collect="always" />
    <linearGradient
       id="linearGradient2667">
      <stop
         id="stop2669"
         offset="0.0000000"
         style="stop-color:#ffffff;stop-opacity:1.0000000;" />
      <stop
         id="stop2671"
         offset="1.0000000"
         style="stop-color:#fcfcff;stop-opacity:0.0000000;" />
    </linearGradient>
    <linearGradient
       gradientUnits="userSpaceOnUse"
       y2="26.729263"
       x2="17.199417"
       y1="1.6537577"
       x1="11.492236"
       gradientTransform="matrix(1.238977,0,0,0.895955,0.590553,-1.331524)"
       id="linearGradient2673"
       xlink:href="#linearGradient2667"
       inkscape:collect="always" />
    <linearGradient
       inkscape:collect="always"
       id="linearGradient2415">
      <stop
         style="stop-color:#ffffff;stop-opacity:1;"
         offset="0"
         id="stop2417" />
      <stop
         style="stop-color:#ffffff;stop-opacity:0;"
         offset="1"
         id="stop2419" />
    </linearGradient>
    <linearGradient
       inkscape:collect="always"
       xlink:href="#linearGradient2415"
       id="linearGradient2421"
       gradientTransform="matrix(1.108069,0,0,0.902471,1,1)"
       x1="17.698339"
       y1="13.004725"
       x2="34.974548"
       y2="55.200756"
       gradientUnits="userSpaceOnUse" />
    <linearGradient
       id="linearGradient2683"
       inkscape:collect="always">
      <stop
         id="stop2685"
         offset="0"
         style="stop-color:#000000;stop-opacity:1;" />
      <stop
         id="stop2687"
         offset="1"
         style="stop-color:#000000;stop-opacity:0;" />
    </linearGradient>
    <linearGradient
       gradientUnits="userSpaceOnUse"
       y2="162.45061"
       x2="3.7069974"
       y1="171.29134"
       x1="3.7069976"
       gradientTransform="matrix(5.705159,0,0,0.17528,1,-0.679373)"
       id="linearGradient2689"
       xlink:href="#linearGradient2683"
       inkscape:collect="always" />
    <linearGradient
       id="linearGradient2675">
      <stop
         id="stop2677"
         offset="0.0000000"
         style="stop-color:#5b5b97;stop-opacity:1.0000000;" />
      <stop
         id="stop2679"
         offset="1.0000000"
         style="stop-color:#1b1b43;stop-opacity:1.0000000;" />
    </linearGradient>
    <linearGradient
       gradientUnits="userSpaceOnUse"
       y2="8.8666229"
       x2="16.315819"
       y1="32.622238"
       x1="19.150396"
       gradientTransform="matrix(1.174139,0,0,0.945431,0.721825,-1.331524)"
       id="linearGradient2681"
       xlink:href="#linearGradient2675"
       inkscape:collect="always" />
    <linearGradient
       id="linearGradient2253">
      <stop
         style="stop-color:#8f8f8f;stop-opacity:1.0000000;"
         offset="0.0000000"
         id="stop2255" />
      <stop
         style="stop-color:#494949;stop-opacity:1.0000000;"
         offset="1.0000000"
         id="stop2257" />
    </linearGradient>
    <linearGradient
       gradientUnits="userSpaceOnUse"
       y2="31.246054"
       x2="32.536823"
       y1="5.3817744"
       x1="10.390738"
       gradientTransform="scale(1.104397,0.905471)"
       id="linearGradient2979"
       xlink:href="#linearGradient2253"
       inkscape:collect="always" />
    <linearGradient
       id="linearGradient2245">
      <stop
         style="stop-color:#dde1d9;stop-opacity:1.0000000;"
         offset="0.0000000"
         id="stop2247" />
      <stop
         style="stop-color:#cacdc6;stop-opacity:1.0000000;"
         offset="1.0000000"
         id="stop2249" />
    </linearGradient>
    <linearGradient
       inkscape:collect="always"
       xlink:href="#linearGradient2245"
       id="linearGradient2251"
       gradientTransform="matrix(1.129863,0,0,0.885063,-1.625,-1.304372)"
       x1="8.6116238"
       y1="7.2293582"
       x2="34.784473"
       y2="33.339787"
       gradientUnits="userSpaceOnUse" />
    <linearGradient
       id="linearGradient2701">
      <stop
         id="stop2703"
         offset="0.0000000"
         style="stop-color:#585956;stop-opacity:1.0000000;" />
      <stop
         id="stop2705"
         offset="1.0000000"
         style="stop-color:#bbbeb8;stop-opacity:1.0000000;" />
    </linearGradient>
    <linearGradient
       gradientUnits="userSpaceOnUse"
       y2="64.892525"
       x2="12.127711"
       y1="53.535141"
       x1="12.206709"
       gradientTransform="scale(1.816345,0.550556)"
       id="linearGradient2707"
       xlink:href="#linearGradient2701"
       inkscape:collect="always" />
    <radialGradient
       inkscape:collect="always"
       xlink:href="#linearGradient2454"
       id="radialGradient2464"
       gradientUnits="userSpaceOnUse"
       gradientTransform="scale(1.925808,0.519262)"
       cx="12.575710"
       cy="67.501709"
       fx="12.575710"
       fy="67.501709"
       r="8.7662794" />
    <linearGradient
       id="linearGradient2985"
       inkscape:collect="always">
      <stop
         id="stop2987"
         offset="0"
         style="stop-color:#d8dfd6;stop-opacity:1;" />
      <stop
         id="stop2989"
         offset="1"
         style="stop-color:#d8dfd6;stop-opacity:0;" />
    </linearGradient>
    <linearGradient
       gradientUnits="userSpaceOnUse"
       y2="44.878883"
       x2="-23.885700"
       y1="49.953003"
       x1="-23.885700"
       gradientTransform="scale(1.492875,0.669848)"
       id="linearGradient2991"
       xlink:href="#linearGradient2985"
       inkscape:collect="always" />
    <linearGradient
       inkscape:collect="always"
       id="linearGradient2454">
      <stop
         style="stop-color:#000000;stop-opacity:1;"
         offset="0"
         id="stop2456" />
      <stop
         style="stop-color:#000000;stop-opacity:0;"
         offset="1"
         id="stop2458" />
    </linearGradient>
    <radialGradient
       inkscape:collect="always"
       xlink:href="#linearGradient2454"
       id="radialGradient2460"
       gradientTransform="scale(1.925808,0.519262)"
       cx="12.575710"
       cy="67.501709"
       fx="12.575710"
       fy="67.501709"
       r="8.7662794"
       gradientUnits="userSpaceOnUse" />
  </defs>
  <sodipodi:namedview
     id="base"
     pagecolor="#ffffff"
     bordercolor="#666666"
     borderopacity="1.0"
     inkscape:pageopacity="0.0"
     inkscape:pageshadow="2"
     inkscape:zoom="18.5"
     inkscape:cx="11"
     inkscape:cy="11"
     inkscape:current-layer="layer1"
     showgrid="true"
     inkscape:grid-bbox="true"
     inkscape:document-units="px"
     width="22px"
     height="22px"
     gridspacingx="0.5px"
     gridspacingy="0.5px"
     gridempspacing="1"
     inkscape:object-bbox="true"
     objecttolerance="10000"
     gridtolerance="10000"
     guidetolerance="10000"
     inkscape:window-width="868"
     inkscape:window-height="610"
     inkscape:window-x="46"
     inkscape:window-y="386" />
  <metadata
     id="metadata1979">
    <rdf:RDF>
      <cc:Work
         rdf:about="">
        <dc:format>image/svg+xml</dc:format>
        <dc:type
           rdf:resource="http://purl.org/dc/dcmitype/StillImage" />
      </cc:Work>
    </rdf:RDF>
  </metadata>
  <g
     id="layer1"
     inkscape:label="Layer 1"
     inkscape:groupmode="layer">
    <g
       id="g1982"
       transform="matrix(0.419979,0,0,0.413538,0.16003,0.506832)">
      <path
         transform="matrix(1,0,0,1.368932,-1.978553,-13.61713)"
         d="M 41.10058 35.051105 A 16.882174 4.552 0 1 1  7.3362331,35.051105 A 16.882174 4.552 0 1 1  41.10058 35.051105 z"
         sodipodi:ry="4.552"
         sodipodi:rx="16.882174"
         sodipodi:cy="35.051105"
         sodipodi:cx="24.218407"
         id="path2452"
         style="color:black;fill:url(#radialGradient2460);fill-opacity:1;fill-rule:evenodd;stroke:none;stroke-width:1;stroke-linecap:round;stroke-linejoin:miter;marker:none;marker-start:none;marker-mid:none;marker-end:none;stroke-miterlimit:4;stroke-dashoffset:0;stroke-opacity:0.70063692;visibility:visible;display:inline;overflow:visible"
         sodipodi:type="arc" />
      <path
         transform="translate(57.53339,3.203427)"
         d="M -26.263968 29.716238 A 9.3944187 3.939595 0 1 1  -45.052805,29.716238 A 9.3944187 3.939595 0 1 1  -26.263968 29.716238 z"
         sodipodi:ry="3.939595"
         sodipodi:rx="9.3944187"
         sodipodi:cy="29.716238"
         sodipodi:cx="-35.658386"
         id="path2407"
         style="color:black;fill:#adb0aa;fill-opacity:1;fill-rule:evenodd;stroke:#4b4d4a;stroke-width:1;stroke-linecap:butt;stroke-linejoin:miter;marker:none;marker-start:none;marker-mid:none;marker-end:none;stroke-miterlimit:4;stroke-dashoffset:0;stroke-opacity:1;visibility:visible;display:inline;overflow:visible"
         sodipodi:type="arc" />
      <path
         sodipodi:type="arc"
         style="color:black;fill:none;fill-opacity:1;fill-rule:evenodd;stroke:#7b7f7a;stroke-width:1;stroke-linecap:butt;stroke-linejoin:miter;marker:none;marker-start:none;marker-mid:none;marker-end:none;stroke-miterlimit:4;stroke-dashoffset:0;stroke-opacity:1;visibility:visible;display:inline;overflow:visible"
         id="path1825"
         sodipodi:cx="-35.658386"
         sodipodi:cy="29.716238"
         sodipodi:rx="9.3944187"
         sodipodi:ry="3.939595"
         d="M -26.263968 29.716238 A 9.3944187 3.939595 0 1 1  -45.052805,29.716238 A 9.3944187 3.939595 0 1 1  -26.263968 29.716238 z"
         transform="matrix(0.940273,0,0,0.940273,55.40361,4.271194)" />
      <path
         transform="matrix(0.940273,0,0,0.940273,55.40361,3.521194)"
         d="M -26.263968 29.716238 A 9.3944187 3.939595 0 1 1  -45.052805,29.716238 A 9.3944187 3.939595 0 1 1  -26.263968 29.716238 z"
         sodipodi:ry="3.939595"
         sodipodi:rx="9.3944187"
         sodipodi:cy="29.716238"
         sodipodi:cx="-35.658386"
         id="path2983"
         style="color:black;fill:none;fill-opacity:1;fill-rule:evenodd;stroke:url(#linearGradient2991);stroke-width:0.68065339;stroke-linecap:butt;stroke-linejoin:miter;marker:none;marker-start:none;marker-mid:none;marker-end:none;stroke-miterlimit:4;stroke-dashoffset:0;stroke-opacity:1;visibility:visible;display:inline;overflow:visible"
         sodipodi:type="arc" />
      <path
         id="path2411"
         d="M 25.6875,28.766243 L 25.625,29.766243 C 25.625,29.766243 29.949108,33.365409 34.625,33.96875 C 36.962946,34.27042 39.378675,34.671162 41.375,35.15625 C 43.371325,35.641338 44.963356,36.275856 45.5,36.8125 C 45.810411,37.122911 45.951063,37.386139 46,37.59375 C 46.048937,37.801361 46.038217,37.948565 45.90625,38.15625 C 45.642317,38.57162 44.826393,39.123902 43.4375,39.5625 C 40.659715,40.439695 35.717076,41 28.875,41 L 28.875,42 C 35.770998,42 40.738665,41.472329 43.71875,40.53125 C 45.208792,40.06071 46.243692,39.515563 46.75,38.71875 C 47.003154,38.320344 47.107321,37.830301 47,37.375 C 46.892679,36.919699 46.615445,36.490445 46.21875,36.09375 C 45.34118,35.21618 43.681912,34.68731 41.625,34.1875 C 39.568088,33.68769 37.109264,33.273171 34.75,32.96875 C 30.031473,32.359908 25.6875,28.766243 25.6875,28.766243 z "
         style="fill:#d0d0d0;fill-opacity:1;fill-rule:evenodd;stroke:#979797;stroke-width:0.40000001;stroke-linecap:butt;stroke-linejoin:round;stroke-miterlimit:4;stroke-opacity:1"
         sodipodi:nodetypes="ccccccccccccccccc" />
      <path
         sodipodi:type="arc"
         style="color:black;fill:url(#radialGradient2464);fill-opacity:1;fill-rule:evenodd;stroke:none;stroke-width:1;stroke-linecap:round;stroke-linejoin:miter;marker:none;marker-start:none;marker-mid:none;marker-end:none;stroke-miterlimit:4;stroke-dashoffset:0;stroke-opacity:0.70063692;visibility:visible;display:inline;overflow:visible"
         id="path2462"
         sodipodi:cx="24.218407"
         sodipodi:cy="35.051105"
         sodipodi:rx="16.882174"
         sodipodi:ry="4.552"
         d="M 41.10058 35.051105 A 16.882174 4.552 0 1 1  7.3362331,35.051105 A 16.882174 4.552 0 1 1  41.10058 35.051105 z"
         transform="matrix(1,0,0,1.368932,-1.978553,-19.02126)" />
      <rect
         style="color:black;fill:url(#linearGradient2707);fill-opacity:1;fill-rule:evenodd;stroke:none;stroke-width:0.60872948;stroke-linecap:butt;stroke-linejoin:miter;marker:none;marker-start:none;marker-mid:none;marker-end:none;stroke-miterlimit:4;stroke-dashoffset:0;stroke-opacity:1;visibility:visible;display:inline;overflow:visible"
         id="rect2699"
         width="9.0396729"
         height="2.7400389"
         x="17.472397"
         y="30.703611" />
      <path
         sodipodi:nodetypes="cssssssss"
         id="rect2404"
         d="M 7.0809024,1.6956221 L 36.669097,1.6956221 C 37.580439,1.6956221 38.293244,2.2791039 38.335849,3.0972091 L 39.667893,28.675323 C 39.726102,29.793058 38.766837,30.695628 37.647588,30.695628 L 6.102412,30.695628 C 4.9831629,30.695628 4.023898,29.793058 4.0821068,28.675323 L 5.4141506,3.0972091 C 5.4544343,2.3236745 5.9616533,1.6956221 7.0809024,1.6956221 z "
         style="color:black;fill:url(#linearGradient2251);fill-opacity:1;fill-rule:evenodd;stroke:url(#linearGradient2979);stroke-width:1;stroke-linecap:butt;stroke-linejoin:miter;marker:none;marker-start:none;marker-mid:none;marker-end:none;stroke-miterlimit:4;stroke-dashoffset:0;stroke-opacity:1;visibility:visible;display:inline;overflow:visible" />
      <path
         style="fill:url(#linearGradient2681);fill-opacity:1;fill-rule:evenodd;stroke:#000079;stroke-width:0.5;stroke-linecap:butt;stroke-linejoin:round;stroke-miterlimit:4;stroke-dasharray:none;stroke-opacity:1"
         d="M 8.4105348,4.3058272 L 7.1683398,26.351144 L 34.818729,26.351144 L 33.483712,4.3992558 L 8.4105348,4.3058272 z "
         id="path2377"
         sodipodi:nodetypes="ccccc" />
      <path
         id="path2393"
         d="M 6.1774331,28.735789 L 37.60591,28.735789"
         style="fill:none;fill-opacity:0.75;fill-rule:evenodd;stroke:url(#linearGradient2689);stroke-width:0.99618119;stroke-linecap:round;stroke-linejoin:miter;stroke-miterlimit:4;stroke-opacity:0.24840764" />
      <path
         style="color:black;fill:none;fill-opacity:1;fill-rule:evenodd;stroke:url(#linearGradient2421);stroke-width:0.99999964;stroke-linecap:butt;stroke-linejoin:miter;marker:none;marker-start:none;marker-mid:none;marker-end:none;stroke-miterlimit:4;stroke-dashoffset:0;stroke-opacity:0.70063692;visibility:visible;display:inline;overflow:visible"
         d="M 6.9145985,2.7063396 L 36.760101,2.6685383 C 37.043798,2.668179 37.319403,2.9057881 37.342206,3.3210821 L 38.704098,28.12433 C 38.762137,29.181361 38.164349,29.910201 37.105727,29.910201 L 6.5817583,29.910201 C 5.5231355,29.910201 4.9887439,29.18141 5.0458869,28.12433 L 6.3699773,3.6301633 C 6.4086732,2.9143326 6.5363627,2.7068187 6.9145985,2.7063396 z "
         id="path2397"
         sodipodi:nodetypes="cssssssss" />
      <path
         id="path2443"
         d="M 8.7115364,4.7463626 L 7.9090069,22.616693 C 18.953645,20.216063 19.33047,12.124494 33.063039,9.4699426 L 32.901567,4.8124267 L 8.7115364,4.7463626 z "
         style="opacity:0.53142856;fill:url(#linearGradient2673);fill-opacity:1;fill-rule:evenodd;stroke:none;stroke-width:0.25pt;stroke-linecap:butt;stroke-linejoin:miter;stroke-opacity:1"
         sodipodi:nodetypes="ccccc" />
      <path
         sodipodi:type="arc"
         style="color:black;fill:url(#radialGradient2659);fill-opacity:1;fill-rule:evenodd;stroke:none;stroke-width:1;stroke-linecap:round;stroke-linejoin:miter;marker:none;marker-start:none;marker-mid:none;marker-end:none;stroke-miterlimit:4;stroke-dashoffset:0;stroke-opacity:0.70063692;visibility:visible;display:inline;overflow:visible"
         id="path2657"
         sodipodi:cx="24.218407"
         sodipodi:cy="35.051105"
         sodipodi:rx="16.882174"
         sodipodi:ry="4.552"
         d="M 41.10058 35.051105 A 16.882174 4.552 0 1 1  7.3362331,35.051105 A 16.882174 4.552 0 1 1  41.10058 35.051105 z"
         transform="matrix(1.264398,0,0,1.291262,-6.216332,-4.000423)" />
      <path
         style="opacity:1;color:black;fill:url(#linearGradient2981);fill-opacity:1;fill-rule:evenodd;stroke:url(#linearGradient1413);stroke-width:1;stroke-linecap:butt;stroke-linejoin:miter;marker:none;marker-start:none;marker-mid:none;marker-end:none;stroke-miterlimit:4;stroke-dasharray:none;stroke-dashoffset:0;stroke-opacity:1;visibility:visible;display:inline;overflow:visible"
         d="M 6.4621839,36.817452 L 37.46459,36.817452 C 38.583839,36.817452 38.441945,37.08889 38.556817,37.430298 L 41.391463,45.855108 C 41.506335,46.196517 41.418485,46.467954 40.299236,46.467954 L 3.6275382,46.467954 C 2.5082891,46.467954 2.4204387,46.196517 2.5353107,45.855108 L 5.3699564,37.430298 C 5.4848284,37.088889 5.3429348,36.817452 6.4621839,36.817452 z "
         id="path2409"
         sodipodi:nodetypes="cssssssss" />
      <path
         style="fill:#7a7d77;fill-opacity:1;fill-rule:evenodd;stroke:none;stroke-width:0.25pt;stroke-linecap:butt;stroke-linejoin:miter;stroke-opacity:1"
         d="M 6.3916892,38.829113 L 4.6239223,43.955638 L 10.104,43.955638 L 10.63433,41.922706 L 25.483572,41.922706 L 26.033251,43.99782 L 32.201086,43.99782 L 30.521708,38.829113 L 6.3916892,38.829113 z "
         id="path2611"
         sodipodi:nodetypes="ccccccccc" />
      <path
         style="fill:#777874;fill-opacity:1;fill-rule:evenodd;stroke:none;stroke-width:0.25pt;stroke-linecap:butt;stroke-linejoin:miter;stroke-opacity:1"
         d="M 11.076272,42.27626 L 10.63433,43.955639 L 25.395184,43.955639 L 24.953242,42.187872 L 11.076272,42.27626 z "
         id="path2613" />
      <path
         id="path2619"
         d="M 37.592776,38.829114 L 39.272155,43.86725 L 33.792077,43.778861 L 32.289475,38.917502 L 37.592776,38.829114 z "
         style="color:black;fill:#777a75;fill-opacity:1;fill-rule:evenodd;stroke:none;stroke-width:0.25pt;stroke-linecap:butt;stroke-linejoin:miter;marker:none;marker-start:none;marker-mid:none;marker-end:none;stroke-miterlimit:4;stroke-dashoffset:0;stroke-opacity:1;visibility:visible;display:inline;overflow:visible" />
      <path
         style="opacity:1;color:black;fill:url(#linearGradient2758);fill-opacity:1;fill-rule:evenodd;stroke:none;stroke-width:0.25pt;stroke-linecap:butt;stroke-linejoin:miter;marker:none;marker-start:none;marker-mid:none;marker-end:none;stroke-miterlimit:4;stroke-dasharray:none;stroke-dashoffset:0;stroke-opacity:1;visibility:visible;display:inline;overflow:visible"
         d="M 37.592776,38.298786 L 39.272155,43.336922 L 33.792077,43.248533 L 32.289475,38.387174 L 37.592776,38.298786 z "
         id="path2615" />
      <path
         sodipodi:nodetypes="ccccccccc"
         id="path2617"
         d="M 6.3916892,38.210397 L 4.6239223,43.336922 L 10.104,43.336922 L 10.63433,41.30399 L 25.483572,41.30399 L 26.033251,43.379104 L 32.201086,43.379104 L 30.521708,38.210397 L 6.3916892,38.210397 z "
         style="fill:url(#linearGradient1411);fill-opacity:1;fill-rule:evenodd;stroke:none;stroke-width:0.25pt;stroke-linecap:butt;stroke-linejoin:miter;stroke-opacity:1" />
      <path
         id="path2621"
         d="M 11.076272,41.745932 L 10.63433,43.425311 L 25.395184,43.425311 L 24.953242,41.657544 L 11.076272,41.745932 z "
         style="opacity:1;color:black;fill:url(#linearGradient1409);fill-opacity:1;fill-rule:evenodd;stroke:none;stroke-width:0.25pt;stroke-linecap:butt;stroke-linejoin:miter;marker:none;marker-start:none;marker-mid:none;marker-end:none;stroke-miterlimit:4;stroke-dasharray:none;stroke-dashoffset:0;stroke-opacity:1;visibility:visible;display:inline;overflow:visible" />
      <path
         sodipodi:nodetypes="ccccc"
         id="path2631"
         d="M 6.1278189,37.578116 L 37.953634,37.578116 L 40.590813,45.670679 L 3.3297429,45.670679 L 6.1278189,37.578116 z "
         style="color:black;fill:none;fill-opacity:1;fill-rule:evenodd;stroke:url(#linearGradient2741);stroke-width:0.5;stroke-linecap:butt;stroke-linejoin:round;marker:none;marker-start:none;marker-mid:none;marker-end:none;stroke-miterlimit:4;stroke-dashoffset:0;stroke-opacity:1;visibility:visible;display:inline;overflow:visible" />
      <path
         sodipodi:type="arc"
         style="color:black;fill:url(#linearGradient2717);fill-opacity:1;fill-rule:evenodd;stroke:none;stroke-width:0.5;stroke-linecap:butt;stroke-linejoin:miter;marker:none;marker-start:none;marker-mid:none;marker-end:none;stroke-miterlimit:4;stroke-dashoffset:0;stroke-opacity:1;visibility:visible;display:inline;overflow:visible"
         id="path2709"
         sodipodi:cx="34.780815"
         sodipodi:cy="3.9384086"
         sodipodi:rx="0.83968931"
         sodipodi:ry="0.83968931"
         d="M 35.620504 3.9384086 A 0.83968931 0.83968931 0 1 1  33.941126,3.9384086 A 0.83968931 0.83968931 0 1 1  35.620504 3.9384086 z"
         transform="matrix(1.331237,0,0,0.658449,-10.41933,2.853866)" />
      <path
         transform="matrix(1.331237,0,0,0.658449,-10.30573,4.959651)"
         d="M 35.620504 3.9384086 A 0.83968931 0.83968931 0 1 1  33.941126,3.9384086 A 0.83968931 0.83968931 0 1 1  35.620504 3.9384086 z"
         sodipodi:ry="0.83968931"
         sodipodi:rx="0.83968931"
         sodipodi:cy="3.9384086"
         sodipodi:cx="34.780815"
         id="path2719"
         style="color:black;fill:url(#linearGradient2721);fill-opacity:1;fill-rule:evenodd;stroke:none;stroke-width:0.5;stroke-linecap:butt;stroke-linejoin:miter;marker:none;marker-start:none;marker-mid:none;marker-end:none;stroke-miterlimit:4;stroke-dashoffset:0;stroke-opacity:1;visibility:visible;display:inline;overflow:visible"
         sodipodi:type="arc" />
      <path
         sodipodi:type="arc"
         style="color:black;fill:url(#linearGradient2725);fill-opacity:1;fill-rule:evenodd;stroke:none;stroke-width:0.5;stroke-linecap:butt;stroke-linejoin:miter;marker:none;marker-start:none;marker-mid:none;marker-end:none;stroke-miterlimit:4;stroke-dashoffset:0;stroke-opacity:1;visibility:visible;display:inline;overflow:visible"
         id="path2723"
         sodipodi:cx="34.780815"
         sodipodi:cy="3.9384086"
         sodipodi:rx="0.83968931"
         sodipodi:ry="0.83968931"
         d="M 35.620504 3.9384086 A 0.83968931 0.83968931 0 1 1  33.941126,3.9384086 A 0.83968931 0.83968931 0 1 1  35.620504 3.9384086 z"
         transform="matrix(1.331237,0,0,0.658449,-10.19213,6.959651)" />
      <path
         transform="matrix(1.331237,0,0,0.658449,-10.07853,8.959651)"
         d="M 35.620504 3.9384086 A 0.83968931 0.83968931 0 1 1  33.941126,3.9384086 A 0.83968931 0.83968931 0 1 1  35.620504 3.9384086 z"
         sodipodi:ry="0.83968931"
         sodipodi:rx="0.83968931"
         sodipodi:cy="3.9384086"
         sodipodi:cx="34.780815"
         id="path2727"
         style="color:black;fill:url(#linearGradient2729);fill-opacity:1;fill-rule:evenodd;stroke:none;stroke-width:0.5;stroke-linecap:butt;stroke-linejoin:miter;marker:none;marker-start:none;marker-mid:none;marker-end:none;stroke-miterlimit:4;stroke-dashoffset:0;stroke-opacity:1;visibility:visible;display:inline;overflow:visible"
         sodipodi:type="arc" />
      <path
         sodipodi:type="arc"
         style="color:black;fill:url(#linearGradient2733);fill-opacity:1;fill-rule:evenodd;stroke:none;stroke-width:0.5;stroke-linecap:butt;stroke-linejoin:miter;marker:none;marker-start:none;marker-mid:none;marker-end:none;stroke-miterlimit:4;stroke-dashoffset:0;stroke-opacity:1;visibility:visible;display:inline;overflow:visible"
         id="path2731"
         sodipodi:cx="34.780815"
         sodipodi:cy="3.9384086"
         sodipodi:rx="0.83968931"
         sodipodi:ry="0.83968931"
         d="M 35.620504 3.9384086 A 0.83968931 0.83968931 0 1 1  33.941126,3.9384086 A 0.83968931 0.83968931 0 1 1  35.620504 3.9384086 z"
         transform="matrix(1.331237,0,0,0.658449,-9.96493,10.95965)" />
      <path
         style="font-size:0.9029026px;font-style:normal;font-variant:normal;font-weight:bold;font-stretch:normal;writing-mode:lr-tb;text-anchor:start;fill:#4a4a4a;fill-opacity:1;stroke:none;stroke-width:1pt;stroke-linecap:butt;stroke-linejoin:miter;stroke-opacity:1;font-family:Bitstream Vera Sans"
         d="M 20,27.317666 L 20.281716,27.317666 C 20.365481,27.317667 20.429701,27.33633 20.474376,27.373656 C 20.519345,27.41069 20.541829,27.463594 20.54183,27.53237 C 20.541829,27.60144 20.519345,27.654638 20.474376,27.691965 C 20.429701,27.728998 20.365481,27.747515 20.281716,27.747515 L 20.169735,27.747515 L 20.169735,27.975885 L 20,27.975885 L 20,27.317666 M 20.169735,27.440669 L 20.169735,27.624512 L 20.26364,27.624512 C 20.296558,27.624512 20.321982,27.616576 20.339911,27.600705 C 20.357839,27.58454 20.366804,27.561762 20.366804,27.53237 C 20.366804,27.502979 20.357839,27.480348 20.339911,27.464476 C 20.321982,27.448605 20.296558,27.440669 20.26364,27.440669 L 20.169735,27.440669 M 20.961979,27.428765 C 20.91025,27.428766 20.870131,27.44787 20.841621,27.486078 C 20.813112,27.524288 20.798857,27.578074 20.798857,27.647437 C 20.798857,27.716507 20.813112,27.770146 20.841621,27.808355 C 20.870131,27.846564 20.91025,27.865668 20.961979,27.865668 C 21.014001,27.865668 21.054267,27.846564 21.082778,27.808355 C 21.111287,27.770146 21.125541,27.716507 21.125542,27.647437 C 21.125541,27.578074 21.111287,27.524288 21.082778,27.486078 C 21.054267,27.44787 21.014001,27.428766 20.961979,27.428765 M 20.961979,27.305762 C 21.067787,27.305763 21.150671,27.336036 21.21063,27.396582 C 21.270588,27.457128 21.300567,27.540747 21.300568,27.647437 C 21.300567,27.753834 21.270588,27.837305 21.21063,27.897851 C 21.150671,27.958398 21.067787,27.988671 20.961979,27.988671 C 20.856464,27.988671 20.77358,27.958398 20.713328,27.897851 C 20.65337,27.837305 20.623391,27.753834 20.623391,27.647437 C 20.623391,27.540747 20.65337,27.457128 20.713328,27.396582 C 20.77358,27.336036 20.856464,27.305763 20.961979,27.305762 M 21.42842,27.317666 L 21.617994,27.317666 L 21.857387,27.769117 L 21.857387,27.317666 L 22.018305,27.317666 L 22.018305,27.975885 L 21.82873,27.975885 L 21.589338,27.524434 L 21.589338,27.975885 L 21.42842,27.975885 L 21.42842,27.317666 M 22.091489,27.317666 L 22.277095,27.317666 L 22.426991,27.552209 L 22.576887,27.317666 L 22.762935,27.317666 L 22.512079,27.698578 L 22.512079,27.975885 L 22.342344,27.975885 L 22.342344,27.698578 L 22.091489,27.317666"
         id="text2735" />
    </g>
    <g
       style="display:inline"
       id="g2138"
       transform="matrix(0.623274,0,0,0.678952,5.530789,4.076814)">
      <path
         inkscape:r_cy="true"
         inkscape:r_cx="true"
         style="opacity:0.15;color:black;fill:none;fill-opacity:1;fill-rule:evenodd;stroke:url(#linearGradient1930);stroke-width:1.99999928;stroke-linecap:square;stroke-linejoin:round;marker:none;marker-start:none;marker-mid:none;marker-end:none;stroke-miterlimit:4;stroke-dasharray:none;stroke-dashoffset:0;stroke-opacity:1;visibility:visible;display:inline;overflow:visible"
         d="M 8.000004,26.33333 L 8.000004,5.999987 L 25.379999,15.878045 L 8.000004,26.33333 z "
         id="path2682"
         sodipodi:nodetypes="cccc" />
      <path
         sodipodi:nodetypes="cccc"
         id="path3375"
         d="M 8.3329775,25.207657 L 8.3329775,6.6666573 L 24.401844,15.937157 L 8.3329775,25.207657 z "
         style="color:black;fill:url(#radialGradient1927);fill-opacity:1;fill-rule:evenodd;stroke:none;stroke-width:1.00000036;stroke-linecap:square;stroke-linejoin:round;marker:none;marker-start:none;marker-mid:none;marker-end:none;stroke-miterlimit:4;stroke-dasharray:none;stroke-dashoffset:0;stroke-opacity:1;visibility:visible;display:inline;overflow:visible"
         inkscape:r_cx="true"
         inkscape:r_cy="true" />
      <path
         sodipodi:nodetypes="cccc"
         id="path2479"
         d="M 8.5000036,25.016444 L 8.5000036,6.8578708 L 24.23483,15.937157 L 8.5000036,25.016444 z "
         style="color:black;fill:none;fill-opacity:1;fill-rule:evenodd;stroke:url(#linearGradient1924);stroke-width:1.00000107;stroke-linecap:square;stroke-linejoin:round;marker:none;marker-start:none;marker-mid:none;marker-end:none;stroke-miterlimit:4;stroke-dasharray:none;stroke-dashoffset:0;stroke-opacity:1;visibility:visible;display:inline;overflow:visible"
         inkscape:r_cx="true"
         inkscape:r_cy="true" />
      <path
         sodipodi:nodetypes="cccccccc"
         id="path2481"
         d="M 9,7.6291165 L 9,24.245188 L 23.402191,15.937152 L 9,7.6291165 z M 9.6374413,8.7448239 L 22.107388,15.937152 L 9.6374413,23.12948 L 9.6374413,8.7448239 z "
         style="color:black;fill:white;fill-opacity:1;fill-rule:evenodd;stroke:none;stroke-width:3;stroke-linecap:square;stroke-linejoin:miter;marker:none;marker-start:none;marker-mid:none;marker-end:none;stroke-miterlimit:4;stroke-dasharray:none;stroke-dashoffset:0;stroke-opacity:1;visibility:visible;display:inline;overflow:visible"
         inkscape:r_cx="true"
         inkscape:r_cy="true" />
      <path
         sodipodi:nodetypes="cccc"
         inkscape:r_cy="true"
         inkscape:r_cx="true"
         id="path2339"
         d="M 9.4387645,8.5309655 L 9.4387645,16.161925 C 12.225732,16.132684 15.4212,15.936301 20.577302,14.937707 L 9.4387645,8.5309655 z "
         style="opacity:0.5;color:black;fill:white;fill-opacity:1;fill-rule:nonzero;stroke:none;stroke-width:2;stroke-linecap:round;stroke-linejoin:round;marker:none;marker-start:none;marker-mid:none;marker-end:none;stroke-miterlimit:10;stroke-dasharray:none;stroke-dashoffset:0;stroke-opacity:1;visibility:visible;display:block;overflow:visible" />
    </g>
  </g>
</svg>
